<?xml version="1.0" encoding="utf-8" standalone="no"?>
<!DOCTYPE svg PUBLIC "-//W3C//DTD SVG 1.1//EN"
  "http://www.w3.org/Graphics/SVG/1.1/DTD/svg11.dtd">
<svg xmlns:xlink="http://www.w3.org/1999/xlink" width="258.722844pt" height="211.008047pt" viewBox="0 0 258.722844 211.008047" xmlns="http://www.w3.org/2000/svg" version="1.1">
 <metadata>
  <rdf:RDF xmlns:dc="http://purl.org/dc/elements/1.1/" xmlns:cc="http://creativecommons.org/ns#" xmlns:rdf="http://www.w3.org/1999/02/22-rdf-syntax-ns#">
   <cc:Work>
    <dc:type rdf:resource="http://purl.org/dc/dcmitype/StillImage"/>
    <dc:format>image/svg+xml</dc:format>
    <dc:creator>
     <cc:Agent>
      <dc:title>Matplotlib v3.10.8, https://matplotlib.org/</dc:title>
     </cc:Agent>
    </dc:creator>
   </cc:Work>
  </rdf:RDF>
 </metadata>
 <defs>
  <style type="text/css">*{stroke-linejoin: round; stroke-linecap: butt}</style>
 </defs>
 <g id="figure_1">
  <g id="patch_1">
   <path d="M 0 211.008047 
L 258.722844 211.008047 
L 258.722844 0 
L 0 0 
z
" style="fill: #ffffff"/>
  </g>
  <g id="axes_1">
   <g id="patch_2">
    <path d="M 37.44 104.652731 
L 238.32 104.652731 
L 238.32 18.93575 
L 37.44 18.93575 
z
" style="fill: #ffffff"/>
   </g>
   <g id="line2d_1">
    <path d="M 37.44 100.40908 
L 37.841768 100.735831 
L 38.123006 100.720595 
L 38.404243 100.466252 
L 38.725658 99.844567 
L 39.127426 98.518899 
L 39.609547 96.070115 
L 40.212199 91.705252 
L 40.995647 84.216492 
L 44.249968 50.985569 
L 45.174035 44.847516 
L 46.078013 40.291507 
L 47.022168 36.644956 
L 48.086853 33.408911 
L 49.452864 29.990664 
L 51.200555 26.212807 
L 52.365683 24.151182 
L 53.108953 23.239472 
L 53.65134 22.894502 
L 54.073197 22.873321 
L 54.454876 23.077706 
L 54.856644 23.554585 
L 55.318678 24.470734 
L 55.861064 26.085755 
L 56.503893 28.770339 
L 57.287341 33.089568 
L 58.352026 40.342304 
L 61.887585 65.416033 
L 63.012535 71.413067 
L 63.936602 75.22281 
L 64.679873 77.42591 
L 65.262436 78.535823 
L 65.72447 78.989984 
L 66.086061 79.065447 
L 66.427564 78.90285 
L 66.809243 78.448125 
L 67.271277 77.514726 
L 67.833752 75.837644 
L 68.556934 72.912495 
L 69.561354 67.80894 
L 72.795587 50.685882 
L 73.940626 46.148513 
L 75.065577 42.577758 
L 76.250792 39.55331 
L 77.576627 36.785184 
L 79.083257 34.153711 
L 80.469357 32.149272 
L 81.493865 31.02853 
L 82.257224 30.502648 
L 82.859876 30.344651 
L 83.382175 30.436534 
L 83.884385 30.759362 
L 84.406683 31.369103 
L 84.989247 32.407325 
L 85.652164 34.067812 
L 86.435612 36.672614 
L 87.399855 40.706538 
L 88.84622 47.849463 
L 91.397447 60.442218 
L 92.582663 65.162766 
L 93.526818 68.091383 
L 94.310265 69.848889 
L 94.933006 70.754717 
L 95.455304 71.151547 
L 95.897249 71.216668 
L 96.319106 71.042348 
L 96.781139 70.586182 
L 97.323526 69.705479 
L 97.986443 68.156245 
L 98.810067 65.609535 
L 99.955106 61.26101 
L 103.812079 46.034992 
L 105.178091 41.835346 
L 106.463748 38.572191 
L 107.648964 36.137337 
L 108.653384 34.541387 
L 109.477009 33.615934 
L 110.139926 33.175937 
L 110.702401 33.054032 
L 111.204611 33.166629 
L 111.706821 33.509428 
L 112.249208 34.157754 
L 112.871949 35.275486 
L 113.575043 37.020747 
L 114.418756 39.75085 
L 115.503529 44.092768 
L 117.432016 52.955949 
L 119.199795 60.645627 
L 120.324746 64.609107 
L 121.208635 66.979849 
L 121.931818 68.339821 
L 122.514381 69.015695 
L 122.996503 69.275736 
L 123.438448 69.270055 
L 123.880393 69.030524 
L 124.382603 68.4805 
L 124.985255 67.451574 
L 125.728526 65.690555 
L 126.692769 62.774946 
L 128.360106 56.879286 
L 130.409123 49.878529 
L 131.775135 45.995635 
L 133.040704 43.043098 
L 134.286185 40.689057 
L 135.471401 38.902502 
L 136.576263 37.620497 
L 137.540506 36.82661 
L 138.36413 36.424788 
L 139.067225 36.316193 
L 139.730142 36.439859 
L 140.372971 36.793223 
L 141.035888 37.418939 
L 141.75907 38.419933 
L 142.582695 39.967454 
L 143.546938 42.2948 
L 144.752242 45.83419 
L 149.43284 60.255688 
L 150.376995 62.159763 
L 151.160442 63.27171 
L 151.803271 63.83321 
L 152.365747 64.051234 
L 152.888045 64.020769 
L 153.430432 63.753005 
L 154.033084 63.182261 
L 154.736178 62.177877 
L 155.579891 60.55312 
L 156.684753 57.896666 
L 158.552974 52.712563 
L 161.003759 46.079994 
L 162.550566 42.526305 
L 163.876401 40.009384 
L 164.981263 38.357262 
L 165.885241 37.371145 
L 166.6486 36.847136 
L 167.291429 36.661841 
L 167.873993 36.721933 
L 168.436468 37.004972 
L 169.03912 37.56984 
L 169.702037 38.515391 
L 170.465397 40.023442 
L 171.369375 42.348894 
L 172.514413 45.9732 
L 174.623696 53.583759 
L 176.311121 59.263729 
L 177.415984 62.245417 
L 178.279785 63.992498 
L 179.002967 64.991564 
L 179.605619 65.472385 
L 180.127918 65.619492 
L 180.610039 65.530624 
L 181.132338 65.194319 
L 181.714901 64.537015 
L 182.417996 63.381072 
L 183.301885 61.455062 
L 184.527278 58.183992 
L 188.424428 47.399916 
L 189.750262 44.560658 
L 190.955566 42.480533 
L 192.060428 40.996844 
L 193.04476 40.023819 
L 193.92865 39.446003 
L 194.712097 39.186138 
L 195.43528 39.173689 
L 196.138374 39.38577 
L 196.861556 39.847065 
L 197.624916 40.609659 
L 198.468629 41.78008 
L 199.45296 43.552115 
L 200.658264 46.215207 
L 202.647016 51.253097 
L 204.61568 56.025005 
L 205.780807 58.294094 
L 206.704873 59.642975 
L 207.488321 60.417073 
L 208.171327 60.791334 
L 208.773979 60.880841 
L 209.376631 60.744372 
L 210.01946 60.356678 
L 210.742642 59.640538 
L 211.586355 58.472884 
L 212.65104 56.590117 
L 214.177759 53.385828 
L 218.135174 44.908754 
L 219.681981 42.199223 
L 220.94755 40.399306 
L 221.992147 39.271888 
L 222.855948 38.642746 
L 223.599219 38.363937 
L 224.262136 38.350662 
L 224.884877 38.562466 
L 225.527706 39.02644 
L 226.210711 39.804691 
L 226.974071 41.024234 
L 227.878049 42.920063 
L 228.982911 45.797556 
L 230.670337 50.90951 
L 232.940326 57.662456 
L 234.085365 60.393765 
L 234.989343 62.025042 
L 235.732614 62.95244 
L 236.375443 63.424395 
L 236.937918 63.574937 
L 237.480305 63.485475 
L 238.04278 63.153216 
L 238.303929 62.918778 
L 238.303929 62.918778 
" clip-path="url(#pa4d0740a32)" style="fill: none; stroke: #d5dbe1; stroke-width: 3.6"/>
   </g>
   <g id="matplotlib.axis_1">
    <g id="xtick_1">
     <g id="line2d_2"/>
    </g>
    <g id="xtick_2">
     <g id="line2d_3"/>
    </g>
    <g id="xtick_3">
     <g id="line2d_4"/>
    </g>
    <g id="xtick_4">
     <g id="line2d_5"/>
    </g>
    <g id="xtick_5">
     <g id="line2d_6"/>
    </g>
   </g>
   <g id="matplotlib.axis_2">
    <g id="ytick_1">
     <g id="line2d_7">
      <path d="M 37.44 78.665973 
L 238.32 78.665973 
" clip-path="url(#pa4d0740a32)" style="fill: none; stroke: #e3e8ed; stroke-width: 0.7; stroke-linecap: round"/>
     </g>
     <g id="line2d_8"/>
     <g id="text_1">
      <!-- −2 -->
      <g style="fill: #1c2b33" transform="translate(23.614531 81.700738) scale(0.085 -0.085)">
       <defs>
        <path id="HelveticaNeue-2212" d="M 307 1837 
L 307 1402 
L 3533 1402 
L 3533 1837 
L 307 1837 
z
" transform="scale(0.015625)"/>
        <path id="HelveticaNeue-32" d="M 282 2931 
L 826 2931 
Q 819 3136 867 3337 
Q 915 3539 1024 3699 
Q 1133 3859 1302 3958 
Q 1472 4058 1709 4058 
Q 1888 4058 2048 4000 
Q 2208 3942 2326 3833 
Q 2445 3725 2515 3574 
Q 2586 3424 2586 3238 
Q 2586 3002 2512 2822 
Q 2438 2643 2294 2489 
Q 2150 2336 1932 2185 
Q 1715 2035 1427 1856 
Q 1190 1715 972 1555 
Q 755 1395 582 1184 
Q 410 973 298 688 
Q 186 403 154 0 
L 3117 0 
L 3117 480 
L 787 480 
Q 826 691 950 854 
Q 1075 1018 1251 1158 
Q 1427 1299 1638 1424 
Q 1850 1549 2061 1677 
Q 2272 1811 2470 1958 
Q 2669 2106 2822 2288 
Q 2976 2470 3069 2700 
Q 3162 2931 3162 3232 
Q 3162 3552 3050 3795 
Q 2938 4038 2746 4201 
Q 2554 4365 2294 4451 
Q 2035 4538 1741 4538 
Q 1382 4538 1100 4416 
Q 819 4294 630 4080 
Q 442 3866 352 3571 
Q 262 3277 282 2931 
z
" transform="scale(0.015625)"/>
       </defs>
       <use xlink:href="#HelveticaNeue-2212"/>
       <use xlink:href="#HelveticaNeue-32" transform="translate(59.999985 0)"/>
      </g>
     </g>
    </g>
    <g id="ytick_2">
     <g id="line2d_9">
      <path d="M 37.44 50.10479 
L 238.32 50.10479 
" clip-path="url(#pa4d0740a32)" style="fill: none; stroke: #e3e8ed; stroke-width: 0.7; stroke-linecap: round"/>
     </g>
     <g id="line2d_10"/>
     <g id="text_2">
      <!-- 0 -->
      <g style="fill: #1c2b33" transform="translate(28.714531 53.139555) scale(0.085 -0.085)">
       <defs>
        <path id="HelveticaNeue-30" d="M 845 2234 
Q 845 2400 848 2601 
Q 851 2803 880 3004 
Q 909 3206 963 3398 
Q 1018 3590 1123 3734 
Q 1229 3878 1389 3968 
Q 1549 4058 1779 4058 
Q 2010 4058 2170 3968 
Q 2330 3878 2435 3734 
Q 2541 3590 2595 3398 
Q 2650 3206 2678 3004 
Q 2707 2803 2710 2601 
Q 2714 2400 2714 2234 
Q 2714 1978 2698 1661 
Q 2682 1344 2595 1065 
Q 2509 787 2317 595 
Q 2125 403 1779 403 
Q 1434 403 1242 595 
Q 1050 787 963 1065 
Q 877 1344 861 1661 
Q 845 1978 845 2234 
z
M 269 2227 
Q 269 1978 281 1709 
Q 294 1440 345 1184 
Q 397 928 493 701 
Q 589 474 755 301 
Q 922 128 1174 29 
Q 1427 -70 1779 -70 
Q 2138 -70 2387 29 
Q 2637 128 2803 301 
Q 2970 474 3066 701 
Q 3162 928 3213 1184 
Q 3264 1440 3277 1709 
Q 3290 1978 3290 2227 
Q 3290 2477 3277 2745 
Q 3264 3014 3213 3270 
Q 3162 3526 3066 3756 
Q 2970 3987 2803 4160 
Q 2637 4333 2384 4435 
Q 2131 4538 1779 4538 
Q 1427 4538 1174 4435 
Q 922 4333 755 4160 
Q 589 3987 493 3756 
Q 397 3526 345 3270 
Q 294 3014 281 2745 
Q 269 2477 269 2227 
z
" transform="scale(0.015625)"/>
       </defs>
       <use xlink:href="#HelveticaNeue-30"/>
      </g>
     </g>
    </g>
    <g id="ytick_3">
     <g id="line2d_11">
      <path d="M 37.44 21.543607 
L 238.32 21.543607 
" clip-path="url(#pa4d0740a32)" style="fill: none; stroke: #e3e8ed; stroke-width: 0.7; stroke-linecap: round"/>
     </g>
     <g id="line2d_12"/>
     <g id="text_3">
      <!-- 2 -->
      <g style="fill: #1c2b33" transform="translate(28.714531 24.578373) scale(0.085 -0.085)">
       <use xlink:href="#HelveticaNeue-32"/>
      </g>
     </g>
    </g>
    <g id="text_4">
     <!-- acceleration -->
     <g style="fill: #1c2b33" transform="translate(17.84125 86.293225) rotate(-90) scale(0.09 -0.09)">
      <defs>
       <path id="HelveticaNeue-61" d="M 3341 13 
Q 3200 -70 2950 -70 
Q 2739 -70 2614 48 
Q 2490 166 2490 435 
Q 2266 166 1968 48 
Q 1670 -70 1325 -70 
Q 1101 -70 899 -19 
Q 698 32 550 141 
Q 403 250 316 426 
Q 230 602 230 851 
Q 230 1133 326 1312 
Q 422 1491 579 1603 
Q 736 1715 937 1772 
Q 1139 1830 1350 1869 
Q 1574 1914 1776 1936 
Q 1978 1958 2131 2000 
Q 2285 2042 2374 2122 
Q 2464 2202 2464 2355 
Q 2464 2534 2397 2643 
Q 2330 2752 2224 2809 
Q 2118 2867 1987 2886 
Q 1856 2906 1728 2906 
Q 1382 2906 1152 2774 
Q 922 2643 902 2278 
L 358 2278 
Q 371 2586 486 2797 
Q 602 3008 794 3139 
Q 986 3270 1232 3328 
Q 1478 3386 1760 3386 
Q 1984 3386 2205 3354 
Q 2426 3322 2605 3222 
Q 2784 3123 2893 2944 
Q 3002 2765 3002 2477 
L 3002 774 
Q 3002 582 3024 492 
Q 3046 403 3174 403 
Q 3245 403 3341 435 
L 3341 13 
z
M 2458 1709 
Q 2355 1632 2188 1597 
Q 2022 1562 1840 1539 
Q 1658 1517 1472 1488 
Q 1286 1459 1139 1395 
Q 992 1331 899 1212 
Q 806 1094 806 890 
Q 806 755 860 662 
Q 915 570 1001 512 
Q 1088 454 1203 428 
Q 1318 403 1446 403 
Q 1715 403 1907 476 
Q 2099 550 2220 662 
Q 2342 774 2400 905 
Q 2458 1037 2458 1152 
L 2458 1709 
z
" transform="scale(0.015625)"/>
       <path id="HelveticaNeue-63" d="M 2656 2246 
L 3219 2246 
Q 3187 2541 3065 2755 
Q 2944 2970 2755 3110 
Q 2566 3251 2320 3318 
Q 2074 3386 1792 3386 
Q 1402 3386 1107 3248 
Q 813 3110 617 2870 
Q 422 2630 326 2307 
Q 230 1984 230 1613 
Q 230 1242 329 931 
Q 429 621 624 397 
Q 819 173 1110 51 
Q 1402 -70 1779 -70 
Q 2413 -70 2781 262 
Q 3149 595 3238 1210 
L 2682 1210 
Q 2630 826 2403 614 
Q 2176 403 1773 403 
Q 1517 403 1331 505 
Q 1146 608 1030 777 
Q 915 947 860 1164 
Q 806 1382 806 1613 
Q 806 1862 857 2096 
Q 909 2330 1027 2509 
Q 1146 2688 1344 2797 
Q 1542 2906 1837 2906 
Q 2182 2906 2387 2733 
Q 2592 2560 2656 2246 
z
" transform="scale(0.015625)"/>
       <path id="HelveticaNeue-65" d="M 2707 1971 
L 806 1971 
Q 819 2163 889 2332 
Q 960 2502 1081 2630 
Q 1203 2758 1372 2832 
Q 1542 2906 1754 2906 
Q 1958 2906 2128 2832 
Q 2298 2758 2422 2633 
Q 2547 2509 2620 2336 
Q 2694 2163 2707 1971 
z
M 3232 1050 
L 2694 1050 
Q 2624 723 2403 563 
Q 2182 403 1837 403 
Q 1568 403 1369 492 
Q 1171 582 1043 732 
Q 915 883 857 1078 
Q 800 1274 806 1491 
L 3283 1491 
Q 3296 1792 3229 2125 
Q 3162 2458 2986 2739 
Q 2810 3021 2518 3203 
Q 2227 3386 1786 3386 
Q 1446 3386 1161 3258 
Q 877 3130 669 2899 
Q 461 2669 345 2355 
Q 230 2042 230 1664 
Q 243 1286 342 966 
Q 442 646 640 416 
Q 838 186 1129 58 
Q 1421 -70 1818 -70 
Q 2381 -70 2752 211 
Q 3123 493 3232 1050 
z
" transform="scale(0.015625)"/>
       <path id="HelveticaNeue-6c" d="M 442 4570 
L 442 0 
L 986 0 
L 986 4570 
L 442 4570 
z
" transform="scale(0.015625)"/>
       <path id="HelveticaNeue-72" d="M 390 3309 
L 390 0 
L 934 0 
L 934 1472 
Q 934 1792 998 2038 
Q 1062 2285 1203 2457 
Q 1344 2630 1574 2720 
Q 1805 2810 2131 2810 
L 2131 3386 
Q 1690 3398 1402 3206 
Q 1114 3014 915 2611 
L 902 2611 
L 902 3309 
L 390 3309 
z
" transform="scale(0.015625)"/>
       <path id="HelveticaNeue-74" d="M 1165 3309 
L 1165 4301 
L 621 4301 
L 621 3309 
L 58 3309 
L 58 2829 
L 621 2829 
L 621 723 
Q 621 493 665 352 
Q 710 211 803 134 
Q 896 58 1046 29 
Q 1197 0 1408 0 
L 1824 0 
L 1824 480 
L 1574 480 
Q 1446 480 1366 489 
Q 1286 499 1241 531 
Q 1197 563 1181 620 
Q 1165 678 1165 774 
L 1165 2829 
L 1824 2829 
L 1824 3309 
L 1165 3309 
z
" transform="scale(0.015625)"/>
       <path id="HelveticaNeue-69" d="M 986 3904 
L 986 4570 
L 442 4570 
L 442 3904 
L 986 3904 
z
M 442 3309 
L 442 0 
L 986 0 
L 986 3309 
L 442 3309 
z
" transform="scale(0.015625)"/>
       <path id="HelveticaNeue-6f" d="M 806 1651 
Q 806 1952 886 2185 
Q 966 2419 1107 2579 
Q 1248 2739 1437 2822 
Q 1626 2906 1837 2906 
Q 2048 2906 2237 2822 
Q 2426 2739 2566 2579 
Q 2707 2419 2787 2185 
Q 2867 1952 2867 1651 
Q 2867 1350 2787 1116 
Q 2707 883 2566 726 
Q 2426 570 2237 486 
Q 2048 403 1837 403 
Q 1626 403 1437 486 
Q 1248 570 1107 726 
Q 966 883 886 1116 
Q 806 1350 806 1651 
z
M 230 1651 
Q 230 1286 332 972 
Q 435 659 640 425 
Q 845 192 1145 61 
Q 1446 -70 1837 -70 
Q 2234 -70 2531 61 
Q 2829 192 3033 425 
Q 3238 659 3340 972 
Q 3443 1286 3443 1651 
Q 3443 2016 3340 2333 
Q 3238 2650 3033 2883 
Q 2829 3117 2531 3251 
Q 2234 3386 1837 3386 
Q 1446 3386 1145 3251 
Q 845 3117 640 2883 
Q 435 2650 332 2333 
Q 230 2016 230 1651 
z
" transform="scale(0.015625)"/>
       <path id="HelveticaNeue-6e" d="M 410 3309 
L 410 0 
L 954 0 
L 954 1869 
Q 954 2093 1014 2281 
Q 1075 2470 1196 2611 
Q 1318 2752 1500 2829 
Q 1683 2906 1933 2906 
Q 2246 2906 2425 2726 
Q 2605 2547 2605 2240 
L 2605 0 
L 3149 0 
L 3149 2176 
Q 3149 2445 3094 2665 
Q 3040 2886 2905 3046 
Q 2771 3206 2553 3296 
Q 2336 3386 2010 3386 
Q 1274 3386 934 2784 
L 922 2784 
L 922 3309 
L 410 3309 
z
" transform="scale(0.015625)"/>
      </defs>
      <use xlink:href="#HelveticaNeue-61"/>
      <use xlink:href="#HelveticaNeue-63" transform="translate(53.699997 0)"/>
      <use xlink:href="#HelveticaNeue-63" transform="translate(107.399994 0)"/>
      <use xlink:href="#HelveticaNeue-65" transform="translate(161.099991 0)"/>
      <use xlink:href="#HelveticaNeue-6c" transform="translate(214.799988 0)"/>
      <use xlink:href="#HelveticaNeue-65" transform="translate(236.999985 0)"/>
      <use xlink:href="#HelveticaNeue-72" transform="translate(290.699982 0)"/>
      <use xlink:href="#HelveticaNeue-61" transform="translate(323.999969 0)"/>
      <use xlink:href="#HelveticaNeue-74" transform="translate(377.699966 0)"/>
      <use xlink:href="#HelveticaNeue-69" transform="translate(409.199951 0)"/>
      <use xlink:href="#HelveticaNeue-6f" transform="translate(431.399948 0)"/>
      <use xlink:href="#HelveticaNeue-6e" transform="translate(488.799942 0)"/>
     </g>
    </g>
   </g>
   <g id="line2d_13">
    <path d="M 37.44 77.134512 
L 37.982387 78.164231 
L 38.424332 78.58317 
L 38.785923 78.648123 
L 39.127426 78.484429 
L 39.529194 78.02061 
L 40.011315 77.096 
L 40.613967 75.422159 
L 41.377327 72.59063 
L 42.401835 67.842999 
L 44.069173 58.873471 
L 46.720842 44.748824 
L 48.12703 38.463314 
L 49.272069 34.291019 
L 50.236312 31.550814 
L 51.059936 29.832046 
L 51.742942 28.874925 
L 52.325506 28.412401 
L 52.827716 28.284946 
L 53.289749 28.394996 
L 53.771871 28.745445 
L 54.314257 29.428564 
L 54.957086 30.630036 
L 55.700357 32.529509 
L 56.584247 35.440233 
L 57.689109 39.89978 
L 59.376535 47.773243 
L 61.767055 58.773903 
L 62.95227 63.1846 
L 63.876337 65.831103 
L 64.639696 67.39701 
L 65.262436 68.22207 
L 65.784735 68.587889 
L 66.246768 68.660248 
L 66.708801 68.497913 
L 67.211011 68.060808 
L 67.793575 67.22754 
L 68.476581 65.836067 
L 69.320294 63.57333 
L 70.384979 60.032301 
L 71.931786 54.01961 
L 75.808847 38.665381 
L 77.194947 34.208393 
L 78.339986 31.229728 
L 79.304229 29.298861 
L 80.127854 28.112483 
L 80.830948 27.461611 
L 81.4336 27.182107 
L 81.996075 27.160742 
L 82.538462 27.363662 
L 83.121026 27.828474 
L 83.763854 28.637237 
L 84.507125 29.950765 
L 85.370927 31.959282 
L 86.395435 34.937562 
L 87.72127 39.533223 
L 92.502309 56.814331 
L 93.526818 59.385718 
L 94.370531 60.955811 
L 95.093713 61.868677 
L 95.716454 62.32068 
L 96.25884 62.459902 
L 96.781139 62.37268 
L 97.343614 62.04331 
L 97.966355 61.408819 
L 98.709625 60.312257 
L 99.613603 58.550601 
L 100.778731 55.751355 
L 102.707217 50.435947 
L 104.957118 44.413576 
L 106.242776 41.586819 
L 107.267285 39.838585 
L 108.110997 38.802764 
L 108.83418 38.238024 
L 109.477009 38.003404 
L 110.079661 38.021301 
L 110.662224 38.262044 
L 111.305053 38.783649 
L 112.008147 39.656654 
L 112.831772 41.062389 
L 113.796015 43.18171 
L 115.001319 46.408646 
L 116.990071 52.489162 
L 118.998911 58.390333 
L 120.164038 61.166403 
L 121.088105 62.84475 
L 121.871553 63.838165 
L 122.53447 64.343936 
L 123.117034 64.525223 
L 123.679509 64.464518 
L 124.241984 64.175104 
L 124.864724 63.596965 
L 125.587907 62.606772 
L 126.451708 61.022157 
L 127.516394 58.572586 
L 128.962758 54.637644 
L 133.583091 41.66076 
L 134.84866 38.942153 
L 135.913345 37.149161 
L 136.817324 36.030024 
L 137.62086 35.370776 
L 138.323954 35.064738 
L 138.986871 35.012984 
L 139.6297 35.183466 
L 140.312705 35.60002 
L 141.076065 36.343524 
L 141.939866 37.516557 
L 142.964374 39.31207 
L 144.250032 42.053407 
L 146.499933 47.495795 
L 148.42842 51.904662 
L 149.633724 54.136696 
L 150.618056 55.517376 
L 151.44168 56.315345 
L 152.164862 56.726998 
L 152.82778 56.860322 
L 153.470609 56.767456 
L 154.153614 56.436239 
L 154.896885 55.8196 
L 155.760686 54.801064 
L 156.825372 53.173929 
L 158.251648 50.544585 
L 162.329594 42.780854 
L 163.474633 41.186054 
L 164.418788 40.230311 
L 165.222324 39.714938 
L 165.945506 39.507988 
L 166.608423 39.544359 
L 167.271341 39.803828 
L 167.974435 40.32524 
L 168.757882 41.200542 
L 169.641772 42.542295 
L 170.686369 44.56103 
L 171.992115 47.603614 
L 174.663872 54.57803 
L 176.270945 58.393045 
L 177.415984 60.570031 
L 178.34005 61.878087 
L 179.123498 62.626154 
L 179.806503 62.989661 
L 180.429244 63.080964 
L 181.051984 62.944083 
L 181.694813 62.570069 
L 182.417996 61.882251 
L 183.261708 60.755662 
L 184.286217 58.990767 
L 185.63214 56.186913 
L 191.056008 44.35101 
L 192.221136 42.587166 
L 193.205467 41.475616 
L 194.069269 40.813347 
L 194.852716 40.477771 
L 195.595987 40.396249 
L 196.339258 40.543442 
L 197.102617 40.925006 
L 197.94633 41.601372 
L 198.930662 42.691555 
L 200.135966 44.382517 
L 201.943922 47.356976 
L 204.414795 51.356586 
L 205.640188 52.922465 
L 206.62452 53.845986 
L 207.488321 54.365144 
L 208.271769 54.58021 
L 209.01504 54.551864 
L 209.75831 54.298119 
L 210.561846 53.779725 
L 211.465825 52.916954 
L 212.53051 51.573406 
L 213.896521 49.458458 
L 216.728986 44.519553 
L 218.456588 41.789452 
L 219.661892 40.272771 
L 220.666313 39.348097 
L 221.530114 38.844911 
L 222.293473 38.649205 
L 223.016656 38.693346 
L 223.739838 38.96911 
L 224.483109 39.497165 
L 225.306733 40.368429 
L 226.2308 41.687051 
L 227.315574 43.647266 
L 228.681585 46.614711 
L 231.453784 53.349218 
L 233.121122 57.034827 
L 234.286249 59.109027 
L 235.250492 60.400954 
L 236.074117 61.155826 
L 236.797299 61.536866 
L 237.480305 61.650212 
L 238.143222 61.533865 
L 238.303929 61.472909 
L 238.303929 61.472909 
" clip-path="url(#pa4d0740a32)" style="fill: none; stroke-dasharray: 2.7,1.8; stroke-dashoffset: 0; stroke: #9aa5af; stroke-width: 0.9"/>
   </g>
   <g id="patch_3">
    <path d="M 37.44 104.652731 
L 37.44 18.93575 
" style="fill: none; stroke: #5e6b77; stroke-width: 0.7; stroke-linejoin: miter; stroke-linecap: square"/>
   </g>
   <g id="patch_4">
    <path d="M 37.44 104.652731 
L 238.32 104.652731 
" style="fill: none; stroke: #5e6b77; stroke-width: 0.7; stroke-linejoin: miter; stroke-linecap: square"/>
   </g>
   <g id="line2d_14">
    <path d="M 37.44 100.312755 
L 37.841768 100.624893 
L 38.123006 100.601697 
L 38.404243 100.341711 
L 38.725658 99.716735 
L 39.127426 98.391897 
L 39.609547 95.950989 
L 40.212199 91.604368 
L 40.995647 84.146435 
L 44.270057 50.832937 
L 45.194123 44.731901 
L 46.098101 40.203142 
L 47.042256 36.576415 
L 48.12703 33.298419 
L 49.513129 29.845697 
L 51.26082 26.077421 
L 52.405859 24.069714 
L 53.129042 23.198448 
L 53.65134 22.872762 
L 54.073197 22.853298 
L 54.454876 23.0598 
L 54.856644 23.539318 
L 55.318678 24.458762 
L 55.861064 26.077589 
L 56.503893 28.765996 
L 57.287341 33.088252 
L 58.352026 40.342328 
L 61.887585 65.415744 
L 63.012535 71.40912 
L 63.936602 75.213148 
L 64.679873 77.411033 
L 65.262436 78.517461 
L 65.72447 78.969723 
L 66.086061 79.044407 
L 66.427564 78.881707 
L 66.809243 78.427595 
L 67.271277 77.495883 
L 67.833752 75.821936 
L 68.556934 72.901701 
L 69.561354 67.80446 
L 72.795587 50.68638 
L 73.940626 46.148989 
L 75.065577 42.578335 
L 76.250792 39.55267 
L 77.576627 36.77972 
L 79.083257 34.138516 
L 80.469357 32.124898 
L 81.473777 31.018272 
L 82.237136 30.483743 
L 82.839788 30.318687 
L 83.362086 30.40409 
L 83.864296 30.720232 
L 84.386595 31.322465 
L 84.969159 32.35167 
L 85.632076 34.001343 
L 86.415524 36.593445 
L 87.379767 40.613877 
L 88.806043 47.642507 
L 91.417536 60.530634 
L 92.602751 65.233551 
L 93.546906 68.143947 
L 94.310265 69.847399 
L 94.933006 70.752373 
L 95.455304 71.148584 
L 95.897249 71.213336 
L 96.319106 71.038839 
L 96.781139 70.582693 
L 97.323526 69.702287 
L 97.986443 68.153717 
L 98.810067 65.608013 
L 99.955106 61.260585 
L 103.812079 46.034617 
L 105.178091 41.835089 
L 106.463748 38.571879 
L 107.648964 36.136643 
L 108.653384 34.540272 
L 109.477009 33.614599 
L 110.139926 33.174587 
L 110.702401 33.052796 
L 111.204611 33.165575 
L 111.706821 33.5086 
L 112.249208 34.15718 
L 112.871949 35.275154 
L 113.575043 37.020567 
L 114.418756 39.750677 
L 115.503529 44.092495 
L 117.432016 52.955909 
L 119.199795 60.645238 
L 120.324746 64.607165 
L 121.208635 66.976071 
L 121.931818 68.334541 
L 122.514381 69.009476 
L 123.016592 69.273871 
L 123.458536 69.257427 
L 123.900481 69.007537 
L 124.402691 68.446499 
L 125.005343 67.4058 
L 125.748614 65.632961 
L 126.712857 62.707097 
L 128.420372 56.661564 
L 130.409123 49.87881 
L 131.775135 45.995932 
L 133.040704 43.043553 
L 134.286185 40.689296 
L 135.491489 38.875233 
L 136.596351 37.598883 
L 137.560594 36.810739 
L 138.36413 36.421374 
L 139.067225 36.31265 
L 139.730142 36.436521 
L 140.372971 36.790353 
L 141.035888 37.416745 
L 141.75907 38.418567 
L 142.582695 39.966951 
L 143.546938 42.294989 
L 144.752242 45.834664 
L 149.43284 60.256076 
L 150.376995 62.160175 
L 151.160442 63.272083 
L 151.803271 63.833528 
L 152.365747 64.051504 
L 152.888045 64.021008 
L 153.430432 63.753229 
L 154.033084 63.182487 
L 154.736178 62.178114 
L 155.579891 60.55335 
L 156.684753 57.896811 
L 158.552974 52.712463 
L 161.003759 46.079897 
L 162.550566 42.526225 
L 163.876401 40.009116 
L 164.981263 38.356758 
L 165.885241 37.370505 
L 166.6486 36.846479 
L 167.291429 36.661245 
L 167.873993 36.721439 
L 168.436468 37.004595 
L 169.03912 37.569578 
L 169.702037 38.515212 
L 170.465397 40.023277 
L 171.369375 42.348655 
L 172.514413 45.972874 
L 174.623696 53.583674 
L 176.311121 59.263393 
L 177.415984 62.244157 
L 178.279785 63.9902 
L 179.002967 64.988408 
L 179.605619 65.468677 
L 180.127918 65.615509 
L 180.610039 65.526587 
L 181.132338 65.19045 
L 181.714901 64.533579 
L 182.417996 63.378404 
L 183.301885 61.453493 
L 184.527278 58.18365 
L 188.424428 47.399978 
L 189.750262 44.560772 
L 190.955566 42.480782 
L 192.060428 40.997156 
L 193.04476 40.024094 
L 193.92865 39.446197 
L 194.712097 39.186267 
L 195.43528 39.173795 
L 196.138374 39.385898 
L 196.861556 39.847259 
L 197.624916 40.60995 
L 198.468629 41.780472 
L 199.45296 43.552566 
L 200.658264 46.215627 
L 202.647016 51.253392 
L 204.61568 56.025353 
L 205.780807 58.294517 
L 206.704873 59.643438 
L 207.488321 60.417548 
L 208.171327 60.791806 
L 208.773979 60.881304 
L 209.376631 60.74482 
L 210.01946 60.357102 
L 210.742642 59.640922 
L 211.586355 58.473201 
L 212.65104 56.59033 
L 214.177759 53.385923 
L 218.135174 44.908887 
L 219.681981 42.199035 
L 220.94755 40.398708 
L 221.992147 39.271026 
L 222.855948 38.641815 
L 223.599219 38.363081 
L 224.262136 38.34996 
L 224.884877 38.561952 
L 225.527706 39.026124 
L 226.210711 39.804543 
L 226.974071 41.024182 
L 227.878049 42.919993 
L 228.982911 45.797365 
L 230.670337 50.909304 
L 232.940326 57.662427 
L 234.085365 60.393394 
L 234.989343 62.024129 
L 235.732614 62.951012 
L 236.375443 63.422573 
L 236.937918 63.572876 
L 237.480305 63.483312 
L 238.04278 63.151096 
L 238.303929 62.916727 
L 238.303929 62.916727 
" clip-path="url(#pa4d0740a32)" style="fill: none; stroke: #0e9384; stroke-width: 0.9; stroke-linecap: round"/>
   </g>
   <g id="legend_1">
    <g id="line2d_15">
     <path d="M 24.397156 10.126875 
L 29.717156 10.126875 
L 35.037156 10.126875 
" style="fill: none; stroke: #d5dbe1; stroke-width: 3.6; stroke-linecap: round"/>
    </g>
    <g id="text_5">
     <!-- ground truth -->
     <g style="fill: #1c2b33" transform="translate(41.117156 12.786875) scale(0.076 -0.076)">
      <defs>
       <path id="HelveticaNeue-67" d="M 3264 282 
L 3264 3309 
L 2752 3309 
L 2752 2835 
L 2746 2835 
Q 2598 3110 2336 3248 
Q 2074 3386 1760 3386 
Q 1331 3386 1036 3222 
Q 742 3059 563 2806 
Q 384 2554 307 2243 
Q 230 1933 230 1638 
Q 230 1299 323 995 
Q 416 691 601 464 
Q 787 237 1062 102 
Q 1338 -32 1709 -32 
Q 2029 -32 2313 112 
Q 2598 256 2739 563 
L 2752 563 
L 2752 346 
Q 2752 70 2697 -160 
Q 2643 -390 2521 -553 
Q 2400 -717 2214 -809 
Q 2029 -902 1760 -902 
Q 1626 -902 1478 -873 
Q 1331 -845 1206 -781 
Q 1082 -717 995 -614 
Q 909 -512 902 -365 
L 358 -365 
Q 371 -634 499 -819 
Q 627 -1005 822 -1120 
Q 1018 -1235 1258 -1286 
Q 1498 -1338 1728 -1338 
Q 2522 -1338 2893 -934 
Q 3264 -531 3264 282 
z
M 1741 442 
Q 1472 442 1293 554 
Q 1114 666 1005 848 
Q 896 1030 851 1254 
Q 806 1478 806 1702 
Q 806 1939 860 2156 
Q 915 2374 1033 2540 
Q 1152 2707 1337 2806 
Q 1523 2906 1786 2906 
Q 2042 2906 2221 2803 
Q 2400 2701 2512 2531 
Q 2624 2362 2675 2150 
Q 2726 1939 2726 1722 
Q 2726 1491 2672 1260 
Q 2618 1030 2502 848 
Q 2387 666 2198 554 
Q 2010 442 1741 442 
z
" transform="scale(0.015625)"/>
       <path id="HelveticaNeue-75" d="M 3149 0 
L 3149 3309 
L 2605 3309 
L 2605 1440 
Q 2605 1216 2544 1027 
Q 2483 838 2361 697 
Q 2240 557 2057 480 
Q 1875 403 1626 403 
Q 1312 403 1133 582 
Q 954 762 954 1069 
L 954 3309 
L 410 3309 
L 410 1133 
Q 410 864 464 643 
Q 518 422 652 262 
Q 787 102 1004 16 
Q 1222 -70 1549 -70 
Q 1914 -70 2182 74 
Q 2451 218 2624 525 
L 2637 525 
L 2637 0 
L 3149 0 
z
" transform="scale(0.015625)"/>
       <path id="HelveticaNeue-64" d="M 806 1626 
Q 806 1869 857 2099 
Q 909 2330 1024 2509 
Q 1139 2688 1331 2797 
Q 1523 2906 1798 2906 
Q 2080 2906 2278 2800 
Q 2477 2694 2601 2521 
Q 2726 2349 2784 2121 
Q 2842 1894 2842 1651 
Q 2842 1421 2787 1197 
Q 2733 973 2611 797 
Q 2490 621 2298 512 
Q 2106 403 1830 403 
Q 1568 403 1373 505 
Q 1178 608 1053 781 
Q 928 954 867 1174 
Q 806 1395 806 1626 
z
M 3366 0 
L 3366 4570 
L 2822 4570 
L 2822 2867 
L 2810 2867 
Q 2720 3014 2589 3113 
Q 2458 3213 2310 3273 
Q 2163 3334 2016 3360 
Q 1869 3386 1741 3386 
Q 1363 3386 1078 3248 
Q 794 3110 605 2876 
Q 416 2643 323 2329 
Q 230 2016 230 1664 
Q 230 1312 326 998 
Q 422 685 611 448 
Q 800 211 1085 70 
Q 1370 -70 1754 -70 
Q 2099 -70 2387 51 
Q 2675 173 2810 448 
L 2822 448 
L 2822 0 
L 3366 0 
z
" transform="scale(0.015625)"/>
       <path id="HelveticaNeue-20" transform="scale(0.015625)"/>
       <path id="HelveticaNeue-68" d="M 410 4570 
L 410 0 
L 954 0 
L 954 1869 
Q 954 2093 1014 2281 
Q 1075 2470 1196 2611 
Q 1318 2752 1500 2829 
Q 1683 2906 1933 2906 
Q 2246 2906 2425 2726 
Q 2605 2547 2605 2240 
L 2605 0 
L 3149 0 
L 3149 2176 
Q 3149 2445 3094 2665 
Q 3040 2886 2905 3046 
Q 2771 3206 2553 3296 
Q 2336 3386 2010 3386 
Q 1862 3386 1705 3354 
Q 1549 3322 1405 3254 
Q 1261 3187 1145 3081 
Q 1030 2976 966 2822 
L 954 2822 
L 954 4570 
L 410 4570 
z
" transform="scale(0.015625)"/>
      </defs>
      <use xlink:href="#HelveticaNeue-67"/>
      <use xlink:href="#HelveticaNeue-72" transform="translate(57.399994 0)"/>
      <use xlink:href="#HelveticaNeue-6f" transform="translate(88.949982 0)"/>
      <use xlink:href="#HelveticaNeue-75" transform="translate(146.349976 0)"/>
      <use xlink:href="#HelveticaNeue-6e" transform="translate(201.949966 0)"/>
      <use xlink:href="#HelveticaNeue-64" transform="translate(257.549957 0)"/>
      <use xlink:href="#HelveticaNeue-20" transform="translate(316.849945 0)"/>
      <use xlink:href="#HelveticaNeue-74" transform="translate(344.649933 0)"/>
      <use xlink:href="#HelveticaNeue-72" transform="translate(376.149918 0)"/>
      <use xlink:href="#HelveticaNeue-75" transform="translate(409.449905 0)"/>
      <use xlink:href="#HelveticaNeue-74" transform="translate(465.049896 0)"/>
      <use xlink:href="#HelveticaNeue-68" transform="translate(496.549881 0)"/>
     </g>
    </g>
    <g id="line2d_16">
     <path d="M 89.918656 10.126875 
L 95.238656 10.126875 
L 100.558656 10.126875 
" style="fill: none; stroke: #0e9384; stroke-width: 1.2; stroke-linecap: round"/>
    </g>
    <g id="text_6">
     <!-- reSolve  $1.4\times10^{-6}$ -->
     <g style="fill: #1c2b33" transform="translate(106.638656 12.786875) scale(0.076 -0.076)">
      <defs>
       <path id="HelveticaNeue-53" d="M 3142 3232 
L 3718 3232 
Q 3706 3610 3574 3882 
Q 3443 4154 3216 4333 
Q 2989 4512 2688 4595 
Q 2387 4678 2035 4678 
Q 1722 4678 1424 4598 
Q 1126 4518 892 4355 
Q 659 4192 518 3939 
Q 378 3686 378 3341 
Q 378 3027 502 2819 
Q 627 2611 835 2480 
Q 1043 2349 1305 2269 
Q 1568 2189 1840 2128 
Q 2112 2067 2374 2009 
Q 2637 1952 2845 1859 
Q 3053 1766 3177 1619 
Q 3302 1472 3302 1235 
Q 3302 986 3200 826 
Q 3098 666 2931 573 
Q 2765 480 2557 441 
Q 2349 403 2144 403 
Q 1888 403 1645 467 
Q 1402 531 1219 665 
Q 1037 800 925 1008 
Q 813 1216 813 1504 
L 237 1504 
Q 237 1088 387 784 
Q 538 480 797 285 
Q 1056 90 1398 -6 
Q 1741 -102 2125 -102 
Q 2438 -102 2755 -28 
Q 3072 45 3328 208 
Q 3584 371 3747 630 
Q 3910 890 3910 1254 
Q 3910 1594 3785 1818 
Q 3661 2042 3453 2189 
Q 3245 2336 2982 2422 
Q 2720 2509 2448 2573 
Q 2176 2637 1913 2691 
Q 1651 2746 1443 2829 
Q 1235 2912 1110 3043 
Q 986 3174 986 3386 
Q 986 3610 1072 3760 
Q 1158 3910 1302 4000 
Q 1446 4090 1632 4128 
Q 1818 4166 2010 4166 
Q 2483 4166 2787 3945 
Q 3091 3725 3142 3232 
z
" transform="scale(0.015625)"/>
       <path id="HelveticaNeue-76" d="M 1901 0 
L 3110 3309 
L 2541 3309 
L 1638 550 
L 1626 550 
L 698 3309 
L 90 3309 
L 1318 0 
L 1901 0 
z
" transform="scale(0.015625)"/>
       <path id="HelveticaNeue-31" d="M 2278 0 
L 2278 4538 
L 1862 4538 
Q 1818 4282 1696 4115 
Q 1574 3949 1398 3853 
Q 1222 3757 1004 3721 
Q 787 3686 557 3686 
L 557 3251 
L 1734 3251 
L 1734 0 
L 2278 0 
z
" transform="scale(0.015625)"/>
       <path id="HelveticaNeue-2e" d="M 531 710 
L 531 0 
L 1242 0 
L 1242 710 
L 531 710 
z
" transform="scale(0.015625)"/>
       <path id="HelveticaNeue-34" d="M 2170 1542 
L 646 1542 
L 2157 3763 
L 2170 3763 
L 2170 1542 
z
M 2682 1542 
L 2682 4538 
L 2246 4538 
L 179 1587 
L 179 1062 
L 2170 1062 
L 2170 0 
L 2682 0 
L 2682 1062 
L 3296 1062 
L 3296 1542 
L 2682 1542 
z
" transform="scale(0.015625)"/>
       <path id="HelveticaNeue-d7" d="M 454 461 
L 762 154 
L 1926 1318 
L 3085 154 
L 3392 461 
L 2234 1626 
L 3386 2778 
L 3078 3085 
L 1926 1933 
L 768 3085 
L 461 2778 
L 1619 1626 
L 454 461 
z
" transform="scale(0.015625)"/>
       <path id="HelveticaNeue-36" d="M 2650 3379 
L 3194 3379 
Q 3142 3942 2809 4240 
Q 2477 4538 1914 4538 
Q 1427 4538 1107 4333 
Q 787 4128 595 3789 
Q 403 3450 323 3011 
Q 243 2573 243 2106 
Q 243 1747 297 1363 
Q 352 979 518 659 
Q 685 339 992 134 
Q 1299 -70 1805 -70 
Q 2234 -70 2525 74 
Q 2816 218 2992 438 
Q 3168 659 3245 928 
Q 3322 1197 3322 1446 
Q 3322 1760 3226 2029 
Q 3130 2298 2954 2496 
Q 2778 2694 2518 2806 
Q 2259 2918 1933 2918 
Q 1562 2918 1277 2777 
Q 992 2637 800 2323 
L 787 2336 
Q 794 2598 838 2899 
Q 883 3200 1001 3459 
Q 1120 3718 1331 3888 
Q 1542 4058 1888 4058 
Q 2214 4058 2412 3872 
Q 2611 3686 2650 3379 
z
M 1830 2438 
Q 2061 2438 2233 2355 
Q 2406 2272 2521 2134 
Q 2637 1997 2691 1808 
Q 2746 1619 2746 1408 
Q 2746 1210 2685 1027 
Q 2624 845 2509 704 
Q 2394 563 2224 483 
Q 2054 403 1830 403 
Q 1606 403 1430 483 
Q 1254 563 1136 697 
Q 1018 832 954 1017 
Q 890 1203 890 1414 
Q 890 1626 950 1814 
Q 1011 2003 1132 2140 
Q 1254 2278 1427 2358 
Q 1600 2438 1830 2438 
z
" transform="scale(0.015625)"/>
      </defs>
      <use xlink:href="#HelveticaNeue-72" transform="translate(0 0.173438)"/>
      <use xlink:href="#HelveticaNeue-65" transform="translate(33.299988 0.173438)"/>
      <use xlink:href="#HelveticaNeue-53" transform="translate(86.999985 0.173438)"/>
      <use xlink:href="#HelveticaNeue-6f" transform="translate(151.799973 0.173438)"/>
      <use xlink:href="#HelveticaNeue-6c" transform="translate(209.199966 0.173438)"/>
      <use xlink:href="#HelveticaNeue-76" transform="translate(231.399963 0.173438)"/>
      <use xlink:href="#HelveticaNeue-65" transform="translate(281.399948 0.173438)"/>
      <use xlink:href="#HelveticaNeue-20" transform="translate(335.099945 0.173438)"/>
      <use xlink:href="#HelveticaNeue-20" transform="translate(362.899933 0.173438)"/>
      <use xlink:href="#HelveticaNeue-31" transform="translate(390.699921 0.173438)"/>
      <use xlink:href="#HelveticaNeue-2e" transform="translate(446.299911 0.173438)"/>
      <use xlink:href="#HelveticaNeue-34" transform="translate(474.099899 0.173438)"/>
      <use xlink:href="#HelveticaNeue-d7" transform="translate(546.759888 0.173438)"/>
      <use xlink:href="#HelveticaNeue-31" transform="translate(623.81987 0.173438)"/>
      <use xlink:href="#HelveticaNeue-30" transform="translate(679.419861 0.173438)"/>
      <use xlink:href="#HelveticaNeue-2212" transform="translate(735.924656 36.365625) scale(0.7)"/>
      <use xlink:href="#HelveticaNeue-36" transform="translate(777.924646 36.365625) scale(0.7)"/>
     </g>
    </g>
    <g id="line2d_17">
     <path d="M 175.798656 10.126875 
L 181.118656 10.126875 
L 186.438656 10.126875 
" style="fill: none; stroke-dasharray: 3.6,2.4; stroke-dashoffset: 0; stroke: #9aa5af; stroke-width: 1.2"/>
    </g>
    <g id="text_7">
     <!-- linear start  0.117 -->
     <g style="fill: #1c2b33" transform="translate(192.518656 12.786875) scale(0.076 -0.076)">
      <defs>
       <path id="HelveticaNeue-73" d="M 742 1043 
L 198 1043 
Q 211 736 326 521 
Q 442 307 634 176 
Q 826 45 1075 -12 
Q 1325 -70 1600 -70 
Q 1850 -70 2102 -22 
Q 2355 26 2556 147 
Q 2758 269 2883 467 
Q 3008 666 3008 966 
Q 3008 1203 2915 1363 
Q 2822 1523 2672 1628 
Q 2522 1734 2326 1798 
Q 2131 1862 1926 1907 
Q 1734 1952 1542 1993 
Q 1350 2035 1196 2096 
Q 1043 2157 944 2249 
Q 845 2342 845 2483 
Q 845 2611 909 2691 
Q 973 2771 1075 2819 
Q 1178 2867 1302 2886 
Q 1427 2906 1549 2906 
Q 1683 2906 1814 2877 
Q 1946 2848 2054 2784 
Q 2163 2720 2233 2614 
Q 2304 2509 2317 2349 
L 2861 2349 
Q 2842 2650 2733 2851 
Q 2624 3053 2441 3171 
Q 2259 3290 2022 3338 
Q 1786 3386 1504 3386 
Q 1286 3386 1065 3331 
Q 845 3277 669 3165 
Q 493 3053 381 2873 
Q 269 2694 269 2445 
Q 269 2125 429 1945 
Q 589 1766 829 1667 
Q 1069 1568 1350 1513 
Q 1632 1459 1872 1392 
Q 2112 1325 2272 1216 
Q 2432 1107 2432 896 
Q 2432 742 2355 643 
Q 2278 544 2160 493 
Q 2042 442 1901 422 
Q 1760 403 1632 403 
Q 1466 403 1309 435 
Q 1152 467 1027 540 
Q 902 614 825 739 
Q 749 864 742 1043 
z
" transform="scale(0.015625)"/>
       <path id="HelveticaNeue-37" d="M 3258 3994 
L 3258 4461 
L 320 4461 
L 320 3949 
L 2701 3949 
Q 2342 3571 2032 3123 
Q 1722 2675 1485 2172 
Q 1248 1670 1097 1123 
Q 947 576 909 0 
L 1517 0 
Q 1549 531 1696 1094 
Q 1843 1658 2076 2189 
Q 2310 2720 2611 3187 
Q 2912 3654 3258 3994 
z
" transform="scale(0.015625)"/>
      </defs>
      <use xlink:href="#HelveticaNeue-6c"/>
      <use xlink:href="#HelveticaNeue-69" transform="translate(22.199997 0)"/>
      <use xlink:href="#HelveticaNeue-6e" transform="translate(44.399994 0)"/>
      <use xlink:href="#HelveticaNeue-65" transform="translate(99.999985 0)"/>
      <use xlink:href="#HelveticaNeue-61" transform="translate(153.699982 0)"/>
      <use xlink:href="#HelveticaNeue-72" transform="translate(207.399979 0)"/>
      <use xlink:href="#HelveticaNeue-20" transform="translate(240.699966 0)"/>
      <use xlink:href="#HelveticaNeue-73" transform="translate(268.499954 0)"/>
      <use xlink:href="#HelveticaNeue-74" transform="translate(318.499939 0)"/>
      <use xlink:href="#HelveticaNeue-61" transform="translate(349.999924 0)"/>
      <use xlink:href="#HelveticaNeue-72" transform="translate(403.699921 0)"/>
      <use xlink:href="#HelveticaNeue-74" transform="translate(436.999908 0)"/>
      <use xlink:href="#HelveticaNeue-20" transform="translate(468.499893 0)"/>
      <use xlink:href="#HelveticaNeue-20" transform="translate(496.299881 0)"/>
      <use xlink:href="#HelveticaNeue-30" transform="translate(524.099869 0)"/>
      <use xlink:href="#HelveticaNeue-2e" transform="translate(579.69986 0)"/>
      <use xlink:href="#HelveticaNeue-31" transform="translate(607.499847 0)"/>
      <use xlink:href="#HelveticaNeue-31" transform="translate(663.099838 0)"/>
      <use xlink:href="#HelveticaNeue-37" transform="translate(718.699829 0)"/>
     </g>
    </g>
   </g>
  </g>
  <g id="axes_2">
   <g id="patch_5">
    <path d="M 37.44 182.48375 
L 238.32 182.48375 
L 238.32 113.910165 
L 37.44 113.910165 
z
" style="fill: #ffffff"/>
   </g>
   <g id="matplotlib.axis_3">
    <g id="xtick_6">
     <g id="line2d_18"/>
     <g id="text_8">
      <!-- 0 -->
      <g style="fill: #1c2b33" transform="translate(35.077266 192.553281) scale(0.085 -0.085)">
       <use xlink:href="#HelveticaNeue-30"/>
      </g>
     </g>
    </g>
    <g id="xtick_7">
     <g id="line2d_19"/>
     <g id="text_9">
      <!-- 5 -->
      <g style="fill: #1c2b33" transform="translate(85.297266 192.553281) scale(0.085 -0.085)">
       <defs>
        <path id="HelveticaNeue-35" d="M 3008 3981 
L 3008 4461 
L 768 4461 
L 346 2106 
L 813 2080 
Q 973 2272 1181 2390 
Q 1389 2509 1658 2509 
Q 1888 2509 2077 2432 
Q 2266 2355 2400 2217 
Q 2534 2080 2608 1891 
Q 2682 1702 2682 1478 
Q 2682 1210 2605 1008 
Q 2528 806 2397 672 
Q 2266 538 2090 470 
Q 1914 403 1722 403 
Q 1517 403 1347 464 
Q 1178 525 1053 637 
Q 928 749 854 899 
Q 781 1050 768 1222 
L 224 1222 
Q 230 915 345 672 
Q 461 429 659 265 
Q 858 102 1117 16 
Q 1376 -70 1670 -70 
Q 2067 -70 2364 54 
Q 2662 179 2860 390 
Q 3059 602 3158 874 
Q 3258 1146 3258 1434 
Q 3258 1824 3142 2115 
Q 3027 2406 2828 2601 
Q 2630 2797 2361 2893 
Q 2093 2989 1792 2989 
Q 1562 2989 1328 2909 
Q 1094 2829 947 2662 
L 934 2675 
L 1178 3981 
L 3008 3981 
z
" transform="scale(0.015625)"/>
       </defs>
       <use xlink:href="#HelveticaNeue-35"/>
      </g>
     </g>
    </g>
    <g id="xtick_8">
     <g id="line2d_20"/>
     <g id="text_10">
      <!-- 10 -->
      <g style="fill: #1c2b33" transform="translate(133.154531 192.553281) scale(0.085 -0.085)">
       <use xlink:href="#HelveticaNeue-31"/>
       <use xlink:href="#HelveticaNeue-30" transform="translate(55.599991 0)"/>
      </g>
     </g>
    </g>
    <g id="xtick_9">
     <g id="line2d_21"/>
     <g id="text_11">
      <!-- 15 -->
      <g style="fill: #1c2b33" transform="translate(183.374531 192.553281) scale(0.085 -0.085)">
       <use xlink:href="#HelveticaNeue-31"/>
       <use xlink:href="#HelveticaNeue-35" transform="translate(55.599991 0)"/>
      </g>
     </g>
    </g>
    <g id="xtick_10">
     <g id="line2d_22"/>
     <g id="text_12">
      <!-- 20 -->
      <g style="fill: #1c2b33" transform="translate(233.594531 192.553281) scale(0.085 -0.085)">
       <use xlink:href="#HelveticaNeue-32"/>
       <use xlink:href="#HelveticaNeue-30" transform="translate(55.599991 0)"/>
      </g>
     </g>
    </g>
    <g id="text_13">
     <!-- time t   (training data covers t = 30–50) -->
     <g style="fill: #1c2b33" transform="translate(60.575625 204.806484) scale(0.09 -0.09)">
      <defs>
       <path id="HelveticaNeue-6d" d="M 410 3309 
L 410 0 
L 954 0 
L 954 2061 
Q 954 2157 1002 2301 
Q 1050 2445 1155 2579 
Q 1261 2714 1430 2810 
Q 1600 2906 1837 2906 
Q 2022 2906 2140 2851 
Q 2259 2797 2329 2697 
Q 2400 2598 2429 2464 
Q 2458 2330 2458 2170 
L 2458 0 
L 3002 0 
L 3002 2061 
Q 3002 2445 3232 2675 
Q 3462 2906 3866 2906 
Q 4064 2906 4189 2848 
Q 4314 2790 4384 2691 
Q 4454 2592 4480 2457 
Q 4506 2323 4506 2170 
L 4506 0 
L 5050 0 
L 5050 2426 
Q 5050 2682 4970 2864 
Q 4890 3046 4746 3161 
Q 4602 3277 4400 3331 
Q 4198 3386 3949 3386 
Q 3622 3386 3350 3238 
Q 3078 3091 2912 2822 
Q 2810 3130 2560 3258 
Q 2310 3386 2003 3386 
Q 1306 3386 934 2822 
L 922 2822 
L 922 3309 
L 410 3309 
z
" transform="scale(0.015625)"/>
       <path id="HelveticaNeue-28" d="M 1306 -1261 
L 1722 -1261 
Q 1267 -525 1072 198 
Q 877 922 877 1728 
Q 877 2515 1069 3232 
Q 1261 3949 1722 4678 
L 1306 4678 
Q 806 4019 553 3251 
Q 301 2483 301 1728 
Q 301 1306 371 922 
Q 442 538 573 173 
Q 704 -192 889 -547 
Q 1075 -902 1306 -1261 
z
" transform="scale(0.015625)"/>
       <path id="HelveticaNeue-3d" d="M 307 1190 
L 307 755 
L 3533 755 
L 3533 1190 
L 307 1190 
z
M 3533 2048 
L 3533 2483 
L 307 2483 
L 307 2048 
L 3533 2048 
z
" transform="scale(0.015625)"/>
       <path id="HelveticaNeue-33" d="M 1395 2592 
L 1395 2131 
Q 1549 2150 1722 2150 
Q 1926 2150 2102 2096 
Q 2278 2042 2406 1930 
Q 2534 1818 2611 1654 
Q 2688 1491 2688 1280 
Q 2688 1075 2608 912 
Q 2528 749 2393 637 
Q 2259 525 2080 464 
Q 1901 403 1702 403 
Q 1235 403 992 681 
Q 749 960 736 1402 
L 192 1402 
Q 186 1050 291 774 
Q 397 499 595 310 
Q 794 122 1075 26 
Q 1357 -70 1702 -70 
Q 2022 -70 2307 16 
Q 2592 102 2803 275 
Q 3014 448 3139 707 
Q 3264 966 3264 1306 
Q 3264 1715 3062 2016 
Q 2861 2317 2445 2406 
L 2445 2419 
Q 2714 2541 2893 2777 
Q 3072 3014 3072 3322 
Q 3072 3635 2966 3865 
Q 2861 4096 2675 4243 
Q 2490 4390 2237 4464 
Q 1984 4538 1690 4538 
Q 1350 4538 1091 4429 
Q 832 4320 659 4128 
Q 486 3936 393 3667 
Q 301 3398 288 3072 
L 832 3072 
Q 832 3270 883 3449 
Q 934 3629 1040 3763 
Q 1146 3898 1309 3978 
Q 1472 4058 1690 4058 
Q 2035 4058 2265 3875 
Q 2496 3693 2496 3328 
Q 2496 3149 2425 3008 
Q 2355 2867 2236 2774 
Q 2118 2682 1961 2634 
Q 1805 2586 1632 2586 
L 1517 2586 
Q 1485 2586 1453 2586 
Q 1427 2586 1395 2592 
z
" transform="scale(0.015625)"/>
       <path id="HelveticaNeue-2013" d="M 0 2035 
L 0 1523 
L 3200 1523 
L 3200 2035 
L 0 2035 
z
" transform="scale(0.015625)"/>
       <path id="HelveticaNeue-29" d="M -58 -1261 
L 352 -1261 
Q 851 -602 1104 163 
Q 1357 928 1357 1683 
Q 1357 2106 1286 2490 
Q 1216 2874 1085 3242 
Q 954 3610 768 3965 
Q 582 4320 352 4678 
L -58 4678 
Q 390 3942 585 3216 
Q 781 2490 781 1683 
Q 781 902 589 182 
Q 397 -538 -58 -1261 
z
" transform="scale(0.015625)"/>
      </defs>
      <use xlink:href="#HelveticaNeue-74"/>
      <use xlink:href="#HelveticaNeue-69" transform="translate(31.499985 0)"/>
      <use xlink:href="#HelveticaNeue-6d" transform="translate(53.699982 0)"/>
      <use xlink:href="#HelveticaNeue-65" transform="translate(138.999969 0)"/>
      <use xlink:href="#HelveticaNeue-20" transform="translate(192.699966 0)"/>
      <use xlink:href="#HelveticaNeue-74" transform="translate(220.499954 0)"/>
      <use xlink:href="#HelveticaNeue-20" transform="translate(251.999939 0)"/>
      <use xlink:href="#HelveticaNeue-20" transform="translate(279.799927 0)"/>
      <use xlink:href="#HelveticaNeue-20" transform="translate(307.599915 0)"/>
      <use xlink:href="#HelveticaNeue-28" transform="translate(335.399902 0)"/>
      <use xlink:href="#HelveticaNeue-74" transform="translate(361.299896 0)"/>
      <use xlink:href="#HelveticaNeue-72" transform="translate(392.799881 0)"/>
      <use xlink:href="#HelveticaNeue-61" transform="translate(426.099869 0)"/>
      <use xlink:href="#HelveticaNeue-69" transform="translate(479.799866 0)"/>
      <use xlink:href="#HelveticaNeue-6e" transform="translate(501.999863 0)"/>
      <use xlink:href="#HelveticaNeue-69" transform="translate(557.599854 0)"/>
      <use xlink:href="#HelveticaNeue-6e" transform="translate(579.79985 0)"/>
      <use xlink:href="#HelveticaNeue-67" transform="translate(635.399841 0)"/>
      <use xlink:href="#HelveticaNeue-20" transform="translate(692.799835 0)"/>
      <use xlink:href="#HelveticaNeue-64" transform="translate(720.599823 0)"/>
      <use xlink:href="#HelveticaNeue-61" transform="translate(779.899811 0)"/>
      <use xlink:href="#HelveticaNeue-74" transform="translate(833.599808 0)"/>
      <use xlink:href="#HelveticaNeue-61" transform="translate(865.099792 0)"/>
      <use xlink:href="#HelveticaNeue-20" transform="translate(918.799789 0)"/>
      <use xlink:href="#HelveticaNeue-63" transform="translate(946.599777 0)"/>
      <use xlink:href="#HelveticaNeue-6f" transform="translate(1000.299774 0)"/>
      <use xlink:href="#HelveticaNeue-76" transform="translate(1057.699768 0)"/>
      <use xlink:href="#HelveticaNeue-65" transform="translate(1107.699753 0)"/>
      <use xlink:href="#HelveticaNeue-72" transform="translate(1161.39975 0)"/>
      <use xlink:href="#HelveticaNeue-73" transform="translate(1194.699738 0)"/>
      <use xlink:href="#HelveticaNeue-20" transform="translate(1244.699722 0)"/>
      <use xlink:href="#HelveticaNeue-74" transform="translate(1272.49971 0)"/>
      <use xlink:href="#HelveticaNeue-20" transform="translate(1303.999695 0)"/>
      <use xlink:href="#HelveticaNeue-3d" transform="translate(1331.799683 0)"/>
      <use xlink:href="#HelveticaNeue-20" transform="translate(1391.799667 0)"/>
      <use xlink:href="#HelveticaNeue-33" transform="translate(1419.599655 0)"/>
      <use xlink:href="#HelveticaNeue-30" transform="translate(1475.199646 0)"/>
      <use xlink:href="#HelveticaNeue-2013" transform="translate(1530.799637 0)"/>
      <use xlink:href="#HelveticaNeue-35" transform="translate(1580.799622 0)"/>
      <use xlink:href="#HelveticaNeue-30" transform="translate(1636.399612 0)"/>
      <use xlink:href="#HelveticaNeue-29" transform="translate(1691.999603 0)"/>
     </g>
    </g>
   </g>
   <g id="matplotlib.axis_4">
    <g id="ytick_4">
     <g id="line2d_23">
      <path d="M 37.44 177.361511 
L 238.32 177.361511 
" clip-path="url(#p21d3f24337)" style="fill: none; stroke: #e3e8ed; stroke-width: 0.7; stroke-linecap: round"/>
     </g>
     <g id="line2d_24"/>
     <g id="text_14">
      <!-- $\mathdefault{10^{-6}}$ -->
      <g style="fill: #1c2b33" transform="translate(16.78 180.396277) scale(0.085 -0.085)">
       <use xlink:href="#HelveticaNeue-31" transform="translate(0 0.173438)"/>
       <use xlink:href="#HelveticaNeue-30" transform="translate(55.599991 0.173438)"/>
       <use xlink:href="#HelveticaNeue-2212" transform="translate(112.104786 36.365625) scale(0.7)"/>
       <use xlink:href="#HelveticaNeue-36" transform="translate(154.104776 36.365625) scale(0.7)"/>
      </g>
     </g>
    </g>
    <g id="ytick_5">
     <g id="line2d_25">
      <path d="M 37.44 157.769059 
L 238.32 157.769059 
" clip-path="url(#p21d3f24337)" style="fill: none; stroke: #e3e8ed; stroke-width: 0.7; stroke-linecap: round"/>
     </g>
     <g id="line2d_26"/>
     <g id="text_15">
      <!-- $\mathdefault{10^{-4}}$ -->
      <g style="fill: #1c2b33" transform="translate(16.78 160.803824) scale(0.085 -0.085)">
       <use xlink:href="#HelveticaNeue-31" transform="translate(0 0.173438)"/>
       <use xlink:href="#HelveticaNeue-30" transform="translate(55.599991 0.173438)"/>
       <use xlink:href="#HelveticaNeue-2212" transform="translate(112.104786 36.365625) scale(0.7)"/>
       <use xlink:href="#HelveticaNeue-34" transform="translate(154.104776 36.365625) scale(0.7)"/>
      </g>
     </g>
    </g>
    <g id="ytick_6">
     <g id="line2d_27">
      <path d="M 37.44 138.176606 
L 238.32 138.176606 
" clip-path="url(#p21d3f24337)" style="fill: none; stroke: #e3e8ed; stroke-width: 0.7; stroke-linecap: round"/>
     </g>
     <g id="line2d_28"/>
     <g id="text_16">
      <!-- $\mathdefault{10^{-2}}$ -->
      <g style="fill: #1c2b33" transform="translate(16.78 141.211371) scale(0.085 -0.085)">
       <use xlink:href="#HelveticaNeue-31" transform="translate(0 0.173438)"/>
       <use xlink:href="#HelveticaNeue-30" transform="translate(55.599991 0.173438)"/>
       <use xlink:href="#HelveticaNeue-2212" transform="translate(112.104786 36.365625) scale(0.7)"/>
       <use xlink:href="#HelveticaNeue-32" transform="translate(154.104776 36.365625) scale(0.7)"/>
      </g>
     </g>
    </g>
    <g id="ytick_7">
     <g id="line2d_29">
      <path d="M 37.44 118.584153 
L 238.32 118.584153 
" clip-path="url(#p21d3f24337)" style="fill: none; stroke: #e3e8ed; stroke-width: 0.7; stroke-linecap: round"/>
     </g>
     <g id="line2d_30"/>
     <g id="text_17">
      <!-- $\mathdefault{10^{0}}$ -->
      <g style="fill: #1c2b33" transform="translate(20.35 121.618919) scale(0.085 -0.085)">
       <use xlink:href="#HelveticaNeue-31" transform="translate(0 0.173438)"/>
       <use xlink:href="#HelveticaNeue-30" transform="translate(55.599991 0.173438)"/>
       <use xlink:href="#HelveticaNeue-30" transform="translate(112.104786 36.365625) scale(0.7)"/>
      </g>
     </g>
    </g>
    <g id="text_18">
     <!-- rolling RMS error -->
     <g style="fill: #1c2b33" transform="translate(10.898437 182.117817) rotate(-90) scale(0.09 -0.09)">
      <defs>
       <path id="HelveticaNeue-52" d="M 499 4570 
L 499 0 
L 1107 0 
L 1107 1952 
L 2592 1952 
Q 2816 1952 2950 1885 
Q 3085 1818 3168 1706 
Q 3251 1594 3289 1443 
Q 3328 1293 3354 1126 
Q 3386 960 3392 787 
Q 3398 614 3404 464 
Q 3411 314 3433 192 
Q 3456 70 3520 0 
L 4198 0 
Q 4102 115 4054 265 
Q 4006 416 3980 582 
Q 3955 749 3948 921 
Q 3942 1094 3930 1261 
Q 3910 1427 3875 1580 
Q 3840 1734 3766 1859 
Q 3693 1984 3568 2073 
Q 3443 2163 3245 2202 
L 3245 2214 
Q 3661 2330 3849 2643 
Q 4038 2957 4038 3373 
Q 4038 3930 3670 4250 
Q 3302 4570 2650 4570 
L 499 4570 
z
M 2374 2464 
L 1107 2464 
L 1107 4058 
L 2618 4058 
Q 3046 4058 3238 3840 
Q 3430 3622 3430 3277 
Q 3430 3027 3344 2870 
Q 3258 2714 3114 2621 
Q 2970 2528 2778 2496 
Q 2586 2464 2374 2464 
z
" transform="scale(0.015625)"/>
       <path id="HelveticaNeue-4d" d="M 512 4570 
L 512 0 
L 1088 0 
L 1088 3802 
L 1101 3802 
L 2528 0 
L 3046 0 
L 4474 3802 
L 4486 3802 
L 4486 0 
L 5062 0 
L 5062 4570 
L 4230 4570 
L 2784 730 
L 1344 4570 
L 512 4570 
z
" transform="scale(0.015625)"/>
      </defs>
      <use xlink:href="#HelveticaNeue-72"/>
      <use xlink:href="#HelveticaNeue-6f" transform="translate(31.549988 0)"/>
      <use xlink:href="#HelveticaNeue-6c" transform="translate(88.949982 0)"/>
      <use xlink:href="#HelveticaNeue-6c" transform="translate(111.149979 0)"/>
      <use xlink:href="#HelveticaNeue-69" transform="translate(133.349976 0)"/>
      <use xlink:href="#HelveticaNeue-6e" transform="translate(155.549973 0)"/>
      <use xlink:href="#HelveticaNeue-67" transform="translate(211.149963 0)"/>
      <use xlink:href="#HelveticaNeue-20" transform="translate(268.549957 0)"/>
      <use xlink:href="#HelveticaNeue-52" transform="translate(296.349945 0)"/>
      <use xlink:href="#HelveticaNeue-4d" transform="translate(364.84993 0)"/>
      <use xlink:href="#HelveticaNeue-53" transform="translate(451.949921 0)"/>
      <use xlink:href="#HelveticaNeue-20" transform="translate(516.749908 0)"/>
      <use xlink:href="#HelveticaNeue-65" transform="translate(544.549896 0)"/>
      <use xlink:href="#HelveticaNeue-72" transform="translate(598.249893 0)"/>
      <use xlink:href="#HelveticaNeue-72" transform="translate(631.549881 0)"/>
      <use xlink:href="#HelveticaNeue-6f" transform="translate(663.099869 0)"/>
      <use xlink:href="#HelveticaNeue-72" transform="translate(720.499863 0)"/>
     </g>
    </g>
   </g>
   <g id="line2d_31">
    <path d="M 37.44 118.033992 
L 37.861856 116.790949 
L 38.042652 116.653195 
L 38.926542 117.022566 
L 39.589459 117.539611 
L 40.192111 118.29536 
L 40.774675 119.402493 
L 41.317062 120.939151 
L 41.799183 123.00138 
L 42.241128 125.922182 
L 42.562542 127.709404 
L 42.642896 127.564785 
L 42.863868 126.301598 
L 43.366079 123.733734 
L 43.8482 122.392456 
L 44.35041 121.623533 
L 44.85262 121.236178 
L 45.374919 121.104875 
L 45.957482 121.195139 
L 46.640488 121.539725 
L 47.504289 122.246906 
L 50.296577 124.765301 
L 50.818876 124.799556 
L 51.341174 124.599937 
L 52.004091 124.08535 
L 54.575407 121.841129 
L 55.258412 121.63893 
L 55.861064 121.690393 
L 56.42354 121.969454 
L 56.965927 122.494642 
L 57.508313 123.344051 
L 58.030612 124.601658 
L 58.492645 126.306622 
L 58.914501 128.738828 
L 59.296181 130.872102 
L 59.31627 130.863023 
L 59.416712 130.544302 
L 60.662192 124.457691 
L 61.284933 123.089796 
L 62.008115 122.024691 
L 62.851828 121.171657 
L 63.816072 120.508571 
L 64.800403 120.090218 
L 65.704381 119.935772 
L 66.528006 120.019097 
L 67.291365 120.32611 
L 68.014547 120.859871 
L 68.73773 121.672838 
L 69.481001 122.855079 
L 70.224272 124.468916 
L 70.967543 126.640997 
L 71.690725 129.485303 
L 72.433996 133.37983 
L 73.056736 136.412048 
L 73.197355 136.521226 
L 73.217444 136.508023 
L 73.358062 136.23335 
L 73.659388 134.963389 
L 74.784339 129.919395 
L 75.52761 127.69857 
L 76.290969 126.091314 
L 77.074417 124.940195 
L 77.857864 124.166576 
L 78.641312 123.697628 
L 79.404671 123.496355 
L 80.147942 123.52716 
L 80.891213 123.779175 
L 81.654572 124.273782 
L 82.478197 125.082179 
L 83.44244 126.361296 
L 84.928982 128.350827 
L 85.370927 128.573047 
L 85.732518 128.513145 
L 86.134286 128.194626 
L 86.696761 127.422336 
L 89.468961 123.196371 
L 90.513557 122.195489 
L 91.61842 121.446471 
L 92.803635 120.910713 
L 94.008939 120.602386 
L 95.13389 120.537497 
L 96.13831 120.70111 
L 97.042288 121.073991 
L 97.886001 121.66253 
L 98.709625 122.515955 
L 99.493073 123.655555 
L 100.236344 125.144753 
L 100.899261 126.995987 
L 101.441648 129.174375 
L 101.903681 131.977707 
L 102.345626 134.68785 
L 102.365715 134.673578 
L 102.466157 134.342049 
L 103.510753 129.395997 
L 104.073229 128.200172 
L 104.756234 127.272843 
L 105.660212 126.439904 
L 108.613207 124.234945 
L 110.421164 123.012521 
L 111.505937 122.535545 
L 112.409915 122.369764 
L 113.213451 122.441778 
L 113.976811 122.737097 
L 114.699993 123.260711 
L 115.403087 124.055351 
L 116.066005 125.158408 
L 116.648568 126.566917 
L 117.150778 128.364652 
L 117.592723 130.811963 
L 118.034668 133.346057 
L 118.054756 133.330104 
L 118.155198 132.982324 
L 119.320326 127.140463 
L 119.922978 125.740073 
L 120.605983 124.692228 
L 121.349254 123.946916 
L 122.112613 123.485654 
L 122.875973 123.279901 
L 123.619244 123.311159 
L 124.342426 123.56816 
L 125.065609 124.07106 
L 125.788791 124.859614 
L 126.491885 125.964918 
L 127.174891 127.469835 
L 127.797631 129.404908 
L 128.340018 131.864322 
L 128.802051 135.055902 
L 129.183731 137.322303 
L 129.284173 137.055901 
L 130.228328 133.237611 
L 130.610007 132.786217 
L 130.931422 132.717552 
L 131.232748 132.88036 
L 131.574251 133.336878 
L 131.95593 134.257448 
L 132.33761 135.80068 
L 132.920174 138.836843 
L 132.980439 138.710302 
L 133.161234 137.615394 
L 133.783975 133.765843 
L 134.326362 131.83222 
L 134.929014 130.458998 
L 135.571843 129.511827 
L 136.23476 128.905736 
L 136.917766 128.570968 
L 137.640948 128.467065 
L 138.444484 128.586523 
L 139.589523 129.014657 
L 140.714473 129.370077 
L 141.337214 129.339329 
L 141.919778 129.081982 
L 142.582695 128.523784 
L 143.546938 127.377148 
L 145.997723 124.377209 
L 147.263292 123.23515 
L 148.488685 122.42182 
L 149.734166 121.857612 
L 150.959558 121.540741 
L 152.144774 121.459091 
L 153.289813 121.603808 
L 154.394675 121.969323 
L 155.499537 122.571906 
L 156.644576 123.456322 
L 157.84988 124.67835 
L 159.055184 126.218274 
L 160.11987 127.928244 
L 160.943494 129.66081 
L 161.566235 131.487365 
L 162.048356 133.591103 
L 162.711273 137.400445 
L 162.791627 137.200679 
L 163.032688 135.587652 
L 163.575075 132.358468 
L 164.157638 130.215185 
L 164.880821 128.404077 
L 165.724534 126.884838 
L 166.6486 125.663004 
L 167.592755 124.767833 
L 168.496733 124.202201 
L 169.360534 123.918493 
L 170.16407 123.884796 
L 170.92743 124.071477 
L 171.670701 124.480384 
L 172.393883 125.130939 
L 173.096977 126.068967 
L 173.739806 127.304028 
L 174.302281 128.867898 
L 174.784403 130.875046 
L 175.246436 133.870097 
L 175.507585 135.169906 
L 175.527674 135.163315 
L 175.628116 134.855169 
L 176.873597 128.87005 
L 177.476249 127.608847 
L 178.119078 126.750649 
L 178.781995 126.212158 
L 179.444912 125.946545 
L 180.087741 125.922585 
L 180.710481 126.121169 
L 181.313133 126.545733 
L 181.915786 127.251943 
L 182.478261 128.258986 
L 183.000559 129.660899 
L 183.462592 131.563137 
L 183.924626 134.546314 
L 184.165687 135.628707 
L 184.185775 135.614971 
L 184.286217 135.278074 
L 185.451344 129.496836 
L 186.033908 128.211392 
L 186.676737 127.320159 
L 187.359742 126.749103 
L 188.082925 126.432931 
L 188.866373 126.333195 
L 189.770351 126.448274 
L 190.895301 126.827604 
L 192.863964 127.775004 
L 196.218728 129.56757 
L 196.94191 130.281222 
L 197.524474 131.163169 
L 198.026684 132.331558 
L 198.468629 133.954201 
L 198.910573 136.560949 
L 199.151634 137.565513 
L 199.171723 137.54781 
L 199.272165 137.179365 
L 200.597999 129.956703 
L 201.301093 128.05471 
L 202.124718 126.458317 
L 203.048784 125.1411 
L 204.073293 124.062849 
L 205.178155 123.221135 
L 206.343282 122.611649 
L 207.548586 122.231034 
L 208.773979 122.075615 
L 210.039548 122.140391 
L 211.385471 122.43533 
L 212.972455 123.023463 
L 215.383063 124.189737 
L 218.074909 125.696049 
L 219.240036 126.599864 
L 220.103837 127.545505 
L 220.82702 128.674461 
L 221.429672 130.039299 
L 221.931882 131.73255 
L 222.373827 134.050521 
L 222.83586 136.713702 
L 222.876037 136.673767 
L 222.996567 136.150178 
L 223.880457 131.204922 
L 224.442932 129.585158 
L 225.065673 128.432848 
L 225.72859 127.656532 
L 226.391507 127.213905 
L 227.034336 127.048912 
L 227.657076 127.120299 
L 228.259728 127.412116 
L 228.86238 127.951598 
L 229.465033 128.803545 
L 230.027508 130.004825 
L 230.529718 131.630784 
L 230.971663 133.873674 
L 231.473873 136.710143 
L 231.514049 136.646382 
L 231.654668 135.943423 
L 232.397939 131.628437 
L 232.960414 129.856509 
L 233.583155 128.598382 
L 234.266161 127.700398 
L 234.969255 127.128892 
L 235.65226 126.843779 
L 236.315178 126.79976 
L 236.937918 126.974938 
L 237.54057 127.374787 
L 237.882073 127.819055 
L 238.303929 129.336895 
L 238.303929 129.336895 
" clip-path="url(#p21d3f24337)" style="fill: none; stroke-dasharray: 3.3,2.2; stroke-dashoffset: 0; stroke: #9aa5af; stroke-width: 1.1"/>
   </g>
   <g id="line2d_32">
    <path d="M 37.44 140.943419 
L 37.881945 139.335318 
L 38.102917 139.018374 
L 38.605127 138.72492 
L 39.067161 138.703562 
L 39.529194 138.913259 
L 40.031404 139.401395 
L 40.593879 140.275325 
L 41.236708 141.718929 
L 41.919714 143.826433 
L 42.642896 146.823952 
L 43.34599 150.730468 
L 44.008907 155.730695 
L 44.651736 162.402196 
L 45.033416 165.522375 
L 45.093681 165.555679 
L 45.133858 165.51278 
L 45.314653 164.97735 
L 45.85704 163.381447 
L 46.158366 163.090933 
L 46.379339 163.149415 
L 46.660576 163.501602 
L 47.223052 164.277242 
L 47.36367 164.070738 
L 47.564554 163.246849 
L 48.066765 159.827498 
L 48.910477 154.643909 
L 49.653748 151.420597 
L 50.397019 149.136364 
L 51.120202 147.595775 
L 51.783119 146.668019 
L 52.385771 146.181944 
L 52.928158 146.020545 
L 53.430368 146.103178 
L 53.932578 146.416075 
L 54.474965 147.03012 
L 55.057528 148.044698 
L 55.680269 149.606018 
L 56.323098 151.867213 
L 56.945838 154.922426 
L 57.528402 158.970795 
L 58.030612 164.12707 
L 58.43238 170.654407 
L 58.673441 174.207666 
L 58.713617 174.146745 
L 59.597507 170.960045 
L 59.778303 171.09618 
L 59.93901 171.179463 
L 59.959098 171.159772 
L 60.079629 170.800291 
L 60.360866 168.838352 
L 60.762634 166.609218 
L 61.003695 166.180058 
L 61.144314 166.253643 
L 61.365287 166.474321 
L 61.385375 166.447225 
L 61.485817 166.015435 
L 61.726878 163.379605 
L 62.309441 157.477169 
L 62.912093 153.614622 
L 63.575011 150.733004 
L 64.258016 148.700794 
L 64.900845 147.426261 
L 65.483409 146.712955 
L 66.005707 146.394055 
L 66.487829 146.355035 
L 66.949862 146.54458 
L 67.452072 147.007343 
L 67.994459 147.824814 
L 68.597111 149.165488 
L 69.219852 151.132391 
L 69.822504 153.816103 
L 70.344802 157.165444 
L 71.088073 163.214772 
L 71.188515 163.027142 
L 71.811255 161.30346 
L 72.052316 161.24728 
L 72.313465 161.439001 
L 72.815676 162.170434 
L 73.297797 162.710718 
L 73.558946 162.715792 
L 73.860272 162.468018 
L 74.724074 161.631477 
L 74.945046 161.718109 
L 75.166019 162.060502 
L 75.447256 162.980952 
L 75.708405 163.830363 
L 75.748582 163.796216 
L 75.849024 163.357065 
L 76.170439 160.314849 
L 76.732914 155.956144 
L 77.375743 152.684042 
L 78.098925 150.102261 
L 78.882373 148.100599 
L 79.665821 146.685333 
L 80.409091 145.775746 
L 81.092097 145.265799 
L 81.734926 145.053306 
L 82.337578 145.086209 
L 82.94023 145.348976 
L 83.56297 145.876106 
L 84.225888 146.750967 
L 84.908893 148.041604 
L 85.611987 149.874591 
L 86.294993 152.304537 
L 86.917734 155.346488 
L 87.46012 159.100495 
L 87.982419 164.425311 
L 88.22348 165.954391 
L 88.303833 165.883619 
L 88.866309 164.875889 
L 89.047104 165.056461 
L 89.308253 165.692629 
L 89.689933 167.278628 
L 90.372939 170.247541 
L 90.473381 170.169923 
L 90.654176 169.589391 
L 91.638508 165.81682 
L 91.919746 165.526437 
L 92.100541 165.600796 
L 92.301425 165.968956 
L 92.74337 167.337844 
L 92.823724 167.172457 
L 92.984431 166.042552 
L 93.727702 160.132085 
L 94.290177 157.539111 
L 94.892829 155.748375 
L 95.475393 154.674265 
L 95.997691 154.144723 
L 96.459724 153.976564 
L 96.881581 154.054865 
L 97.323526 154.370713 
L 97.825736 155.027101 
L 98.388211 156.166011 
L 98.990863 157.928999 
L 99.613603 160.480458 
L 100.256432 164.129 
L 101.180499 169.626728 
L 101.280941 169.549087 
L 101.461736 168.980428 
L 102.606775 164.647598 
L 103.068809 163.844439 
L 103.470577 163.541528 
L 103.832168 163.538634 
L 104.213847 163.771083 
L 104.756234 164.401204 
L 105.479417 165.207549 
L 105.760654 165.2201 
L 106.021804 164.974763 
L 106.383395 164.259986 
L 107.227108 161.890275 
L 108.090909 159.789812 
L 108.753826 158.715279 
L 109.316302 158.188547 
L 109.798423 158.016927 
L 110.240368 158.088794 
L 110.702401 158.405785 
L 111.204611 159.046551 
L 111.767087 160.160518 
L 112.389827 161.921698 
L 113.313893 165.342116 
L 113.796015 166.721873 
L 114.057164 166.93897 
L 114.258048 166.826811 
L 114.599551 166.294112 
L 115.423176 164.978869 
L 115.764678 164.807338 
L 116.045916 164.905493 
L 116.327154 165.257616 
L 116.648568 166.035357 
L 117.010159 167.531985 
L 117.411927 170.267312 
L 118.034668 174.848475 
L 118.054756 174.843816 
L 118.13511 174.541715 
L 118.315906 172.346117 
L 118.938646 164.53115 
L 119.52121 160.162664 
L 120.184127 156.842892 
L 120.867133 154.486784 
L 121.550138 152.869872 
L 122.192967 151.875907 
L 122.775531 151.356029 
L 123.297829 151.174666 
L 123.779951 151.239543 
L 124.282161 151.546703 
L 124.804459 152.138451 
L 125.387023 153.161194 
L 125.989675 154.702072 
L 126.572239 156.823671 
L 127.094537 159.565949 
L 127.576659 163.366843 
L 127.93825 165.772293 
L 128.018604 165.642847 
L 128.360106 164.146009 
L 128.721698 163.185399 
L 129.023024 162.923164 
L 129.284173 162.965438 
L 129.625676 163.2869 
L 130.208239 164.224537 
L 130.790803 165.035158 
L 131.092129 165.124327 
L 131.373367 164.945569 
L 131.795223 164.343387 
L 132.759466 162.915044 
L 133.141146 162.716122 
L 133.422384 162.794371 
L 133.703621 163.125385 
L 134.004947 163.86571 
L 134.34645 165.375485 
L 134.647776 166.554621 
L 134.667865 166.535309 
L 134.768307 166.154606 
L 135.129898 163.236545 
L 135.672285 159.882703 
L 136.254848 157.60402 
L 136.897677 155.940016 
L 137.540506 154.85481 
L 138.143158 154.239337 
L 138.705633 153.967884 
L 139.227932 153.961946 
L 139.730142 154.179468 
L 140.272529 154.673478 
L 140.835004 155.504488 
L 141.417568 156.783723 
L 141.980043 158.576401 
L 142.482253 160.921458 
L 142.944286 164.19386 
L 143.325966 166.559057 
L 143.406319 166.399912 
L 143.707645 164.857142 
L 144.129502 163.319435 
L 144.491093 162.722911 
L 144.832596 162.548894 
L 145.15401 162.630149 
L 145.555778 162.977166 
L 146.198607 163.880639 
L 147.022232 164.966863 
L 147.403911 165.128094 
L 147.745414 165.023777 
L 148.207447 164.60944 
L 149.573459 163.259245 
L 150.095757 163.087476 
L 150.597967 163.15836 
L 151.140354 163.478743 
L 151.843448 164.182984 
L 153.088929 165.452719 
L 153.591139 165.632511 
L 154.153614 165.579438 
L 155.2183 165.436564 
L 155.660244 165.636245 
L 156.062012 166.066256 
L 156.483869 166.873127 
L 156.905725 168.215962 
L 157.307493 170.297274 
L 157.769527 172.947937 
L 157.809703 172.918337 
L 157.930234 172.452527 
L 158.73377 168.476728 
L 159.155626 167.630646 
L 159.517218 167.342025 
L 159.838632 167.353747 
L 160.180135 167.608137 
L 160.601991 168.231356 
L 161.204643 169.578461 
L 161.807295 170.790503 
L 162.028268 170.848667 
L 162.209063 170.641339 
L 162.490301 169.908791 
L 163.193395 167.188802 
L 164.057196 164.248193 
L 164.76029 162.598455 
L 165.383031 161.659647 
L 165.925418 161.208416 
L 166.407539 161.080498 
L 166.849484 161.186082 
L 167.331606 161.546432 
L 167.853904 162.230497 
L 168.476645 163.439491 
L 170.103805 166.883578 
L 170.344866 166.881968 
L 170.626104 166.625473 
L 171.148402 165.755063 
L 171.951938 164.508715 
L 172.413971 164.170571 
L 172.775563 164.165242 
L 173.117066 164.398197 
L 173.498745 164.969724 
L 173.920602 166.048395 
L 174.402723 167.964226 
L 175.125906 171.160542 
L 175.166083 171.131479 
L 175.286613 170.745818 
L 175.567851 168.760441 
L 176.431652 162.609921 
L 177.134746 159.213719 
L 177.857928 156.774458 
L 178.561022 155.140599 
L 179.22394 154.126888 
L 179.826592 153.587759 
L 180.368979 153.38934 
L 180.871189 153.439918 
L 181.373399 153.716801 
L 181.915786 154.280884 
L 182.498349 155.222481 
L 183.12109 156.682972 
L 183.723742 158.685474 
L 184.286217 161.362786 
L 184.768339 164.785246 
L 185.270549 168.370658 
L 185.370991 168.140523 
L 186.074085 165.792766 
L 186.355322 165.619102 
L 186.596383 165.720815 
L 186.917798 166.145407 
L 187.339654 167.121956 
L 187.962394 169.212383 
L 188.565047 171.013799 
L 188.765931 171.123411 
L 188.926638 170.952248 
L 189.207875 170.231573 
L 190.774771 165.54562 
L 191.337246 164.715642 
L 191.819368 164.362026 
L 192.261312 164.305362 
L 192.683169 164.477442 
L 193.165291 164.933429 
L 193.747854 165.828328 
L 195.415192 168.689392 
L 195.656252 168.615575 
L 195.957578 168.235509 
L 196.459788 167.154811 
L 197.765535 164.272569 
L 198.44854 163.325548 
L 199.051192 162.848034 
L 199.593579 162.683501 
L 200.156054 162.750142 
L 200.778795 163.058993 
L 201.783215 163.856451 
L 202.626928 164.416626 
L 203.169315 164.51722 
L 203.691613 164.379351 
L 204.414795 163.921458 
L 206.082133 162.805327 
L 206.945934 162.528835 
L 207.890089 162.465233 
L 209.035128 162.619027 
L 210.079725 162.968737 
L 210.883261 163.463278 
L 211.606443 164.174589 
L 212.309537 165.187795 
L 213.092985 166.733761 
L 214.458996 169.528544 
L 214.780411 169.696641 
L 215.04156 169.589125 
L 215.403151 169.153158 
L 216.970047 166.92699 
L 217.331638 166.847842 
L 217.632964 167.006584 
L 217.93429 167.434998 
L 218.255704 168.310539 
L 218.617296 170.029814 
L 218.898533 171.174372 
L 218.918622 171.160978 
L 219.019064 170.810165 
L 219.360566 168.138634 
L 219.882865 164.936943 
L 220.465429 162.712932 
L 221.088169 161.185544 
L 221.690821 160.259134 
L 222.253296 159.780578 
L 222.755506 159.634638 
L 223.21754 159.72704 
L 223.699661 160.059745 
L 224.22196 160.711216 
L 224.784435 161.793949 
L 225.387087 163.478062 
L 226.009827 165.931019 
L 226.73301 169.787254 
L 227.215132 171.913134 
L 227.35575 171.982316 
L 227.375839 171.964715 
L 227.536546 171.615832 
L 227.938314 169.948075 
L 228.661496 167.188208 
L 229.183795 165.978922 
L 229.62574 165.457251 
L 229.967243 165.357661 
L 230.268569 165.493597 
L 230.610071 165.919063 
L 230.991751 166.781895 
L 231.413607 168.322123 
L 231.855552 170.831541 
L 232.317586 174.868892 
L 232.51847 176.136827 
L 232.538558 176.099884 
L 232.639 175.389418 
L 233.64342 165.695144 
L 234.286249 162.18477 
L 234.969255 159.647464 
L 235.65226 157.925019 
L 236.295089 156.862309 
L 236.877653 156.288389 
L 237.399951 156.056744 
L 237.821808 156.055338 
L 238.223576 157.175297 
L 238.303929 157.492624 
L 238.303929 157.492624 
" clip-path="url(#p21d3f24337)" style="fill: none; stroke: #0e9384; stroke-width: 1.1; stroke-linecap: round"/>
   </g>
   <g id="patch_6">
    <path d="M 37.44 182.48375 
L 37.44 113.910165 
" style="fill: none; stroke: #5e6b77; stroke-width: 0.7; stroke-linejoin: miter; stroke-linecap: square"/>
   </g>
   <g id="patch_7">
    <path d="M 37.44 182.48375 
L 238.32 182.48375 
" style="fill: none; stroke: #5e6b77; stroke-width: 0.7; stroke-linejoin: miter; stroke-linecap: square"/>
   </g>
  </g>
 </g>
 <defs>
  <clipPath id="pa4d0740a32">
   <rect x="37.44" y="18.93575" width="200.88" height="85.716981"/>
  </clipPath>
  <clipPath id="p21d3f24337">
   <rect x="37.44" y="113.910165" width="200.88" height="68.573585"/>
  </clipPath>
 </defs>
</svg>
